<svg xmlns="http://www.w3.org/2000/svg" viewBox="0 0 400 400">
    <path fill="#FDFDFD" d="M164.924 336.005v30.963c-20.283-.385-40.491 2.226-59.777-5.783-24.035-9.982-37.589-28.561-40.572-53.73-1.943-16.393-1.544-33.249-.408-49.775 1.447-21.068 12.013-37.312 30.548-48.004.558-.322 1.03-.79 1.769-1.366-.76-.559-1.346-1.121-2.038-1.48-20.808-10.806-32.279-28.41-33.957-51.257-1.495-20.35-2.47-40.949 1.317-61.27 5.829-31.278 26.046-52.063 57.439-56.967 14.814-2.315 30.097-1.632 45.443-2.32v46.472c-1.334.097-2.752.285-4.17.29-7.498.03-14.996-.06-22.493.027-16.448.191-27.24 8.451-28.46 24.618-1.272 16.876-1.255 34.025.194 50.883 1.49 17.345 12.288 26.017 29.805 26.666 8.276.306 16.573.052 25.107.052v46.764c-7.814 0-15.484-.61-23.024.12-19.556 1.89-28.835 11.939-29.467 31.53-.343 10.652-.335 21.329-.057 31.983.438 16.799 10.39 26.347 27.213 26.49 8.31.07 16.622.011 25.588.011v15.083zM284.474 88.473c-5.831-4.692-12.278-6.51-19.285-6.544-8.954-.043-17.907-.01-27.075-.01V35.665c20.074.426 40.296-2.187 59.647 5.373 24.226 9.463 39.228 27.465 42.752 52.764 2.69 19.31 1.69 39.15 1.991 58.76.068 4.415-1.018 8.914-2.03 13.268-4.238 18.222-14.75 31.692-31.227 40.525-.732.392-1.471.774-2.176 1.21-.273.168-.46.475-.462.478 5.318 4.343 11.118 8.233 15.877 13.134 11.834 12.186 16.736 27.57 17.09 44.094.312 14.598.401 29.432-1.769 43.806-5.136 34.023-29.724 55.555-64.504 57.654-11.591.7-23.26.11-35.158.11v-45.842c8.367 0 16.687.525 24.901-.18 5.636-.485 11.66-1.685 16.564-4.324 8.87-4.772 10.938-13.945 11.11-23.174.213-11.473.162-23.002-.725-34.433-1.339-17.26-10.86-26.527-28.124-27.814-7.761-.58-15.602-.098-23.689-.098v-46.792c4.379 0 8.816.053 13.25-.014 5.328-.082 10.748.323 15.961-.516 15.859-2.552 24.145-9.854 25.455-26.051 1.415-17.49.527-35.196.076-52.793-.161-6.272-3.481-11.726-8.45-16.337z"/>
    <path fill="#6FFFB0" d="M181.708 206V35.684h38.966v331.154h-38.966V206z"/>
</svg>